<svg width="24" height="24" viewBox="0 0 24 24" fill="none" xmlns="http://www.w3.org/2000/svg">
<path fill-rule="evenodd" clip-rule="evenodd" d="M12 17.5C9.51525 17.5 7.5 15.4847 7.5 13C7.5 10.5153 9.51525 8.5 12 8.5C14.4847 8.5 16.5 10.5153 16.5 13C16.5 15.4847 14.4847 17.5 12 17.5ZM12 7C8.6865 7 6 9.6865 6 13C6 16.3135 8.6865 19 12 19C15.3135 19 18 16.3135 18 13C18 9.6865 15.3135 7 12 7ZM22.5 19C22.5 19.828 21.828 20.5 21 20.5H3C2.172 20.5 1.5 19.828 1.5 19V7C1.5 6.172 2.172 5.5 3 5.5H6L6.75 4C7.28025 3.12775 7.422 2.5 8.25 2.5H15.75C16.578 2.5 16.7197 3.12775 17.25 4L18 5.5H21C21.828 5.5 22.5 6.172 22.5 7V19ZM21 4H18.75L18 2.5C17.5583 1.62775 17.328 1 16.5 1H7.5C6.672 1 6.3975 1.7155 6 2.5L5.25 4H3C1.34325 4 0 5.34325 0 7V19C0 20.6567 1.34325 22 3 22H21C22.6567 22 24 20.6567 24 19V7C24 5.34325 22.6567 4 21 4Z" fill="#1A1A1A"/>
</svg>
