<svg width="24" height="24" viewBox="0 0 24 24" fill="none" xmlns="http://www.w3.org/2000/svg">
<path d="M23.2551 20.3069C23.6313 20.3069 23.9998 20.6491 24 21.153C24 21.657 23.6314 22 23.2551 22H0.744905C0.368567 22 0 21.657 0 21.153C0.000173975 20.6491 0.368655 20.3069 0.744905 20.3069H23.2551ZM23.2551 11.153C23.6314 11.153 24 11.496 24 12C24 12.504 23.6314 12.847 23.2551 12.847H0.744905C0.368567 12.847 0 12.504 0 12C0 11.496 0.368567 11.153 0.744905 11.153H23.2551ZM23.2551 2C23.6314 2 24 2.34299 24 2.84704C23.9998 3.35089 23.6313 3.69305 23.2551 3.69305H0.744905C0.368656 3.69305 0.000174037 3.35089 0 2.84704C0 2.34299 0.368567 2 0.744905 2H23.2551Z" fill="#1A1A1A"/>
</svg>
